<?xml version="1.0" standalone="no"?><!DOCTYPE svg PUBLIC "-//W3C//DTD SVG 1.1//EN" "http://www.w3.org/Graphics/SVG/1.1/DTD/svg11.dtd"><svg t="1731759322566" class="icon" viewBox="0 0 1035 1024" version="1.1" xmlns="http://www.w3.org/2000/svg" p-id="4801" xmlns:xlink="http://www.w3.org/1999/xlink" width="129.375" height="128"><path d="M551.831813 13.106671a38.18971 38.18971 0 0 1 3.169976 50.409617l-3.169976 3.589973-391.552029 391.552029A286.417827 286.417827 0 0 0 557.941766 870.871162l7.409944-7.141946 391.513029-391.552029a38.18971 38.18971 0 0 1 57.207566 50.409618l-3.169976 3.589972-391.552029 391.552029A362.796247 362.796247 0 0 1 98.413253 412.831637l7.866941-8.133938L497.832223 13.106671a38.18971 38.18971 0 0 1 53.99959 0M361.841254 433.071484A210.039406 210.039406 0 1 1 151.801848 643.11289a210.039406 210.039406 0 0 1 210.039406-210.040406m304.557689 97.764258l162.036771-161.998771a38.18971 38.18971 0 0 1 57.168566 50.409618l-3.169976 3.589973L720.398534 584.873332a38.18971 38.18971 0 0 1-57.169567-50.409617l3.169976-3.627973 162.036771-161.998771z m0-378.033131a38.18971 38.18971 0 0 1 3.169976 50.409617l-3.169976 3.589973-161.99877 162.03577a38.18971 38.18971 0 0 1-57.206566-50.409617l3.207975-3.589973 161.998771-162.07477a38.150711 38.150711 0 0 1 53.99959 0M1024.00023 11.197685a38.18971 38.18971 0 0 1 3.169976 50.409618l-3.169976 3.589972-297.034746 297.034746a38.18971 38.18971 0 0 1-57.168566-50.371617l3.169976-3.627973L970.00164 11.197685a38.150711 38.150711 0 0 1 53.99959 0m-13.899895 217.945346a38.18971 38.18971 0 0 1 3.168976 50.409618l-3.169976 3.589973-26.731797 26.731797a38.18971 38.18971 0 0 1-57.169566-50.409618l3.207976-3.589973 26.694797-26.731797a38.150711 38.150711 0 0 1 53.99959 0M780.965074 38.19748a38.18971 38.18971 0 0 1 3.169976 50.409618l-3.169976 3.589972-26.731797 26.732798a38.18971 38.18971 0 0 1-57.169566-50.409618l3.207975-3.589973 26.693798-26.732797a38.150711 38.150711 0 0 1 53.99959 0" fill="#404853" p-id="4802" data-spm-anchor-id="a313x.search_index.0.i0.6c323a81fOgnjO" class=""></path></svg>