<svg xmlns="http://www.w3.org/2000/svg" xmlns:xlink="http://www.w3.org/1999/xlink" id="body_1" width="400" height="400">

<g transform="matrix(1.3653333 0 0 1.3653333 -820 -70)">
    <path d="M815.08 226.03L822.31 234.35L825.34 237.85L821.47 241.43L811.97 228.32L815.08 226.03L815.08 226.03" stroke="none" fill="#C3987B" fill-rule="nonzero"/>
    <path d="M822.31 212.58L831.56 216.07L835.32 224.23L830.55 235.41L825.34 237.85L825.34 237.84L818.02 230.33L822.31 212.58L822.31 212.58" stroke="none" fill="#DFBDA5" fill-rule="nonzero"/>
    <path d="M814.72 225.62L828.45 209.32L831.56 216.07L818.02 230.33L815.08 226.03L814.72 225.62L814.72 225.62" stroke="none" fill="#8B6651" fill-rule="nonzero"/>
    <path d="M825.34 237.85L835.32 224.23L839.14 237.48L832.85 246.58L825.34 237.84L825.34 237.85L825.34 237.85" stroke="none" fill="#C3987B" fill-rule="nonzero"/>
    <path d="M797.26 157.01L829.43 199.78L795.24 204.98L781.79 172.12" stroke="none" fill="#99C26D" fill-rule="nonzero"/>
    <path d="M782.68 173.5L829.43 199.78L829.43 199.78L815.83 227.08L808.14 224.42L782.68 173.5" stroke="none" fill="#738D57" fill-rule="nonzero"/>
    <path d="M781.79 172.12L815.83 224.23L803.48 223.3L796.39 219.01L774.78 178.97" stroke="none" fill="#5A753D" fill-rule="nonzero"/>
    <path d="M818.02 230.33L799.71 224.23L796.39 219.01L815.83 224.23L829.43 199.78L829.43 199.78L832.89 204.31L818.02 230.33L818.02 230.33" stroke="none" fill="#35785D" fill-rule="nonzero"/>
    <path d="M678.53 342.84L745.09 341.69L829.8 333.76L733.4 326.3L678.53 342.84L678.53 342.84" stroke="none" fill="#2B2B2B" fill-rule="nonzero" fill-opacity="0.09803922"/>
    <path d="M764.96 314.44L764.96 324.03L776.81 320.37L783.54 315.26L785.74 306.62L764.96 314.44L764.96 314.44" stroke="none" fill="#35785D" fill-rule="nonzero"/>
    <path d="M714.07 305.81L710.52 324.08L720.77 324.03L730.5 317.88L732.67 313.28L714.07 305.81L714.07 305.81" stroke="none" fill="#35785D" fill-rule="nonzero"/>
    <path d="M783.54 315.26L764.96 324.03L764.96 329.02L780.72 330.34L800.07 329.02L783.54 315.26L783.54 315.26" stroke="none" fill="#54B08B" fill-rule="nonzero"/>
    <path d="M764.96 329.02L800.07 329.02L800.07 333.77L764.96 333.77z" stroke="none" fill="#35785D" fill-rule="nonzero"/>
    <path d="M730.5 317.88L734.82 331.64L722.65 334.02L708.79 331.64L710.52 324.08L730.5 317.88L730.5 317.88" stroke="none" fill="#54B08B" fill-rule="nonzero"/>
    <path d="M708.79 331.64L734.82 331.64L734.82 336.39L708.79 336.39z" stroke="none" fill="#35785D" fill-rule="nonzero"/>
    <path d="M732.07 181.97L725.09 180.92L706.69 178.99L731.26 198.81L732.99 204.64L744.2 227.45L759.29 212.74L732.07 181.97L732.07 181.97" stroke="none" fill="#738D57" fill-rule="nonzero"/>
    <path d="M722.65 208.16L730.78 222.4L739.28 226.22L745.41 217.49L732.99 195.87L722.65 208.16L722.65 208.16" stroke="none" fill="#446125" fill-rule="nonzero"/>
    <path d="M800.16 200.33L763.93 253.6L745.41 217.49L730.78 222.4L703.04 299.64L740.52 322.32L740.66 322.43L802.83 297.95L800.16 200.33L800.16 200.33" stroke="none" fill="#738D57" fill-rule="nonzero"/>
    <path d="M787.09 204.34L774.81 225.77L768.57 220.16L759.29 212.74L745.41 217.49L741.15 317.11L796.59 199.99L787.55 203.08L787.09 204.34L787.09 204.34" stroke="none" fill="#99C26D" fill-rule="nonzero"/>
    <path d="M725.99 189.03L706.69 178.99" stroke="none" fill="#99C26D" fill-rule="nonzero"/>
    <path d="M732.99 195.87L725.99 189.03" stroke="none" fill="#5A753D" fill-rule="nonzero"/>
    <path d="M808.14 125.99L788.62 129.75L789.92 139.51L791.91 151.35L801.78 144.48L808.14 125.99L808.14 125.99" stroke="none" fill="#8F8F8F" fill-rule="nonzero"/>
    <path d="M786.31 116.98L791.71 131.65L808.14 125.99L786.31 116.98L786.31 116.98" stroke="none" fill="#DDDDDC" fill-rule="nonzero"/>
    <path d="M794 163.74L797.79 166.83L805.8 168.46L812.8 153.54L801.65 157.27L794 163.74L794 163.74" stroke="none" fill="#8F8F8F" fill-rule="nonzero"/>
    <path d="M801.78 144.48L788.62 144.48L794 163.74L812.8 153.54L801.78 144.48L801.78 144.48" stroke="none" fill="#C4C4C4" fill-rule="nonzero"/>
    <path d="M720.74 157.27L704.63 161.68L699.94 173.98L709.63 175.77L722.01 165.27L720.74 157.27L720.74 157.27" stroke="none" fill="#C4C4C4" fill-rule="nonzero"/>
    <path d="M718.65 146.03L696.26 151.91L704.63 161.68L719.87 164.56L724.3 157.27L718.65 146.03L718.65 146.03" stroke="none" fill="#8F8F8F" fill-rule="nonzero"/>
    <path d="M718.72 129.91L714.29 130.86L710.92 126.55L696.26 151.91L719.16 148.74L718.72 129.91L718.72 129.91" stroke="none" fill="#DDDDDC" fill-rule="nonzero"/>
    <path d="M731.38 167.89L699.94 173.98L706.69 178.99L733.68 174.57L731.38 167.89L731.38 167.89" stroke="none" fill="#8F8F8F" fill-rule="nonzero"/>
    <path d="M789.11 116.79L789.15 116.98L789.13 116.79L789.11 116.79L789.11 116.79" stroke="none" fill="#8F8F8F" fill-rule="nonzero"/>
    <path d="M794 163.74L792.38 179.24" stroke="none" fill="#99C26D" fill-rule="nonzero"/>
    <path d="M796.59 179.66L776 158.38L796.59 199.99" stroke="none" fill="#5A753D" fill-rule="nonzero"/>
    <path d="M787.55 203.08L796.59 199.99L792.09 190.81L787.55 203.08L787.55 203.08" stroke="none" fill="#738D57" fill-rule="nonzero"/>
    <path d="M759.29 212.74L760.47 213.49L759.29 212.74L759.29 212.74L759.29 212.74" stroke="none" fill="#54B08B" fill-rule="nonzero"/>
    <path d="M759.29 212.74L759.29 212.74L725.09 191.05L725.09 191.05L759.29 212.74L759.29 212.74" stroke="none" fill="#54B08B" fill-rule="nonzero"/>
    <path d="M788.86 190.98L784.3 203.31L783.87 204.34L787.55 203.08L792.09 190.81L790.36 187.29L788.86 190.98L788.86 190.98" stroke="none" fill="#35785D" fill-rule="nonzero"/>
    <path d="M677.4 216.04L667.08 211.56L650.27 206.92L651.25 190.31L666.74 197.67L674.89 209.65L677.4 216.04L677.4 216.04" stroke="none" fill="#8B6651" fill-rule="nonzero"/>
    <path d="M641.94 187.98L639 201L650.27 206.92L664.71 192.31L641.94 187.98L641.94 187.98" stroke="none" fill="#C3987B" fill-rule="nonzero"/>
    <path d="M674.03 200.33L667.37 191.26L651.96 187.72L650.61 189.67L655.06 194.14L661.87 196.78L664.47 203.82L668.41 207.81L674.89 209.65L674.03 200.33L674.03 200.33" stroke="none" fill="#DFBDA5" fill-rule="nonzero"/>
    <path d="M716.96 212.51L678.8 223.49L673.59 194.07L691.16 198.79L716.96 212.51" stroke="none" fill="#738D57" fill-rule="nonzero"/>
    <path d="M719.05 186.92L711.66 211.87L691.16 198.79L706.6 178.91" stroke="none" fill="#99C26D" fill-rule="nonzero"/>
    <path d="M732.99 195.87L708.73 226.93L690.71 227.28L680.26 219.87L711.66 211.87L719.05 186.92" stroke="none" fill="#5A753D" fill-rule="nonzero"/>
    <path d="M668.99 193.47L673.59 194.07L680.26 219.87L708.73 226.93L704.61 230.57L675.91 224.78L668.99 193.47L668.99 193.47" stroke="none" fill="#35785D" fill-rule="nonzero"/>
    <path d="M726.66 276.37L724.95996 277.87L727.95996 277.37L736.05994 256.57L732.1599 259.37L726.6599 276.37L726.66 276.37z" stroke="none" fill="#54B08B" fill-rule="nonzero"/>
    <path d="M725 277.87L726.7 276.37L732.2 259.37L736.10004 256.57L734.30005 247.17001L741.30005 241.47002L739.80005 237.87001L743.4 226.57L746.10004 227.37001L746.9 225.27L750.4 212.87001L743.4 212.47002L737.2 237.97002L729.8 245.47002L731.3 257.27002L725 277.87z" stroke="none" fill="#35785D" fill-rule="nonzero"/>
    <path d="M743.36 226.57L739.76 237.87001L741.26 241.47002L746.06 227.37001L743.36 226.57z" stroke="none" fill="#54B08B" fill-rule="nonzero"/>
    <path d="M753.86 170.13L751.61 179.66L730.5 189.03L762.55 211.29L762.74 211.56L783.87 204.34L753.86 170.13L753.86 170.13" stroke="none" fill="#54B08B" fill-rule="nonzero"/>
    <path d="M724.8 187.35L730.5 189.03L755.45 179.66L719.87 164.56L709.63 175.77L724.8 187.35L724.8 187.35" stroke="none" fill="#72C9A6" fill-rule="nonzero"/>
    <path d="M774.81 155.63L774.77 155.55L774.63 155.65L774.81 155.63L774.81 155.63" stroke="none" fill="#35785D" fill-rule="nonzero"/>
    <path d="M760.47 208.06L709.63 175.77L706.69 178.99L759.29 212.74L778.66 237.87L789.22 204.34L760.47 208.06L760.47 208.06" stroke="none" fill="#35785D" fill-rule="nonzero"/>
    <path d="M753.86 170.13L742.19 162.16L720.74 157.27L719.87 164.56L755.45 179.66L753.86 170.13L753.86 170.13" stroke="none" fill="#35785D" fill-rule="nonzero"/>
    <path d="M795.39 153.1L783.72 84.96L764.32 70.01L752.02 80.42L726.46 78.75L722.01 82.8L731.26 100.85L747.15 166.33L770.52 159.87L795.39 153.1L795.39 153.1" stroke="none" fill="#DFBDA5" fill-rule="nonzero"/>
    <path d="M764.32 73.9L783.72 84.96L772.16 69.53L762.64 66.74L760.64 70.01L764.32 73.9L764.32 73.9" stroke="none" fill="#ECECEB" fill-rule="nonzero"/>
    <path d="M762.64 66.74L743.08 61L743.55 75.58L754.1 84.96L764.32 73.9L762.64 66.74L762.64 66.74" stroke="none" fill="#DDDDDC" fill-rule="nonzero"/>
    <path d="M724.46 75.58L724.66 77.86L726.24 79.17L754.07 85L754.1 84.96L743.08 61L724.46 75.58L724.46 75.58" stroke="none" fill="#C4C4C4" fill-rule="nonzero"/>
    <path d="M751.08 95.78L752.02 98.58L741.94 105.93L740.64 102.65L751.08 95.78L751.08 95.78" stroke="none" fill="#8F8F8F" fill-rule="nonzero"/>
    <path d="M765.82 93.28L766.93 96.63L777.44 98.27L778.15 96L765.82 93.28L765.82 93.28" stroke="none" fill="#8F8F8F" fill-rule="nonzero"/>
    <path d="M741.94 105.93L767.09 131.65L765.82 109.74L756.55 100.8L764.4 99.42L768.45 110.69L772.2 116.92L777.44 98.27L766.93 96.63L764.4 99.42L756.55 100.8L752.02 98.58L741.94 105.93L741.94 105.93" stroke="none" fill="#C3987B" fill-rule="nonzero"/>
    <path d="M733.42 90.62L726.46 78.75L714.99 98.27L720.75 104.92L722.01 122.44L716.81 116.6L713.03 122.33L706.69 124.68L711.9 139.87L717.26 138.53L720.75 139.23L719.16 148.74L720.74 157.27L743.55 166.13L747.77 166.41L733.42 90.62L733.42 90.62" stroke="none" fill="#C3987B" fill-rule="nonzero"/>
    <path d="M717.26 138.53L719.16 148.74L724.23 136.65L717.26 138.53L717.26 138.53" stroke="none" fill="#8B6651" fill-rule="nonzero"/>
    <path d="M758.7 163.14L743.55 166.13L755.06 170.6L758.7 163.14L758.7 163.14" stroke="none" fill="#8B6651" fill-rule="nonzero"/>
    <path d="M710.92 126.55L719.87 132.54L717.51 124.42L710.92 126.55L710.92 126.55" stroke="none" fill="#8B6651" fill-rule="nonzero"/>
    <path d="M741.15 317.11L703.04 299.64L701.35 304.95L740.52 322.32L740.66 322.43L802.98 303.71L802.83 297.95L741.15 317.11L741.15 317.11" stroke="none" fill="#35785D" fill-rule="nonzero"/>
    <path d="M767.09 131.65L750 147.04L760.47 208.06L779.67 225.74L781.14 228.34L780.47 230.93L778.66 237.87L789.17 245.17L782.16 170.6L772.18 132.76L767.09 131.65L767.09 131.65" stroke="none" fill="#C4C4C4" fill-rule="nonzero"/>
    <path d="M791.19 223.97L800.16 200.33L789.92 139.51L775.08 129.91L772.18 132.76L789.17 245.17L794.95 233.97L791.99 229.17L790.36 226.8L791.19 223.97L791.19 223.97" stroke="none" fill="#ECECEB" fill-rule="nonzero"/>
    <path transform="matrix(0.98846745 -0.15143336 0.15143336 0.98846745 -25.38 121.63)" d="M780 224.83L791.65 224.83L791.65 230.08L780 230.08z" stroke="none" fill="#446125" fill-rule="nonzero"/>
    <path d="M779.94 141.6L773.68 144.67L764 144.33L763.29 141.09L773.18 141.4L779.23 138.37L779.94 141.6L779.94 141.6" stroke="none" fill="#8B6651" fill-rule="nonzero"/>
    <path d="M754.87994 114.38C 754.87994 115.20015 754.58997 115.90018 754.0101 116.4801C 753.4302 117.06004 752.7301 117.350006 751.91 117.35C 751.08984 117.350006 750.38983 117.06004 749.8099 116.4801C 749.23 115.90018 748.94 115.20015 748.94 114.38C 748.94 113.55986 749.23 112.85982 749.8099 112.27989C 750.38983 111.69997 751.08984 111.409996 751.91 111.409996C 752.7301 111.409996 753.4302 111.69997 754.0101 112.27989C 754.58997 112.85982 754.87994 113.55986 754.87994 114.38C 754.87994 114.414566 754.8794 114.44911 754.8782 114.48365" stroke="none" fill="#2B2B2B" fill-rule="nonzero"/>
    <path d="M778.05 109.13C 778.05005 109.95015 777.7601 110.65018 777.1801 111.2301C 776.6002 111.81004 775.90015 112.100006 775.08 112.1C 774.2599 112.100006 773.5599 111.81004 772.9799 111.2301C 772.4 110.65018 772.1101 109.95015 772.11005 109.13C 772.1101 108.30986 772.4 107.60982 772.9799 107.02989C 773.5599 106.44997 774.2599 106.159996 775.08 106.159996C 775.90015 106.159996 776.6002 106.44997 777.1801 107.02989C 777.7601 107.60982 778.05005 108.30986 778.05 109.13C 778.05005 109.164566 778.04944 109.19911 778.0482 109.23365" stroke="none" fill="#2B2B2B" fill-rule="nonzero"/>
    <path d="M764.4 99.42L770.12 107.54L775.08 129.91L767.09 131.65L762.78 109.57L756.55 100.8L764.4 99.42L764.4 99.42" stroke="none" fill="#E8CAB6" fill-rule="nonzero"/>
    <path d="M703.52 92.18L713.03 122.33L716.06 121.24L722.54 124.99L724.41 101.24L716.95 96.87L726.46 78.75L724.46 75.58L703.52 92.18L703.52 92.18" stroke="none" fill="#8F8F8F" fill-rule="nonzero"/>
    <path d="M775.08 129.91L767.09 131.65L772.51 134.95L775.08 129.91L775.08 129.91" stroke="none" fill="#8F8F8F" fill-rule="nonzero"/>
</g>
</svg>